HIERARCHY
ROOT Hips
{
	OFFSET 0.000000 100.481300 0.000000
	CHANNELS 6 Xposition Yposition Zposition Xrotation Yrotation Zrotation 
	JOINT Spine
	{
		OFFSET -0.279200 12.230698 -2.892100
		CHANNELS 3 Xrotation Yrotation Zrotation
		JOINT Spine1
		{
			OFFSET -0.232667 10.192268 -1.242267
			CHANNELS 3 Xrotation Yrotation Zrotation
			JOINT Spine1_split
			{
				OFFSET -0.232667 10.192268 -1.242267
				CHANNELS 3 Xrotation Yrotation Zrotation
				JOINT Spine2
				{
					OFFSET -0.232667 10.192268 -1.242267
					CHANNELS 3 Xrotation Yrotation Zrotation
					JOINT Neck
					{
						OFFSET -0.418800 17.814194 8.416900
						CHANNELS 3 Xrotation Yrotation Zrotation
						JOINT Head
						{
							OFFSET 0.000000 7.031097 3.806800
							CHANNELS 3 Xrotation Yrotation Zrotation
							JOINT HeadTop_End
							{
								OFFSET 0.000000 24.646606 12.978600
								CHANNELS 3 Xrotation Yrotation Zrotation
								End Site
								{
									OFFSET 0.000000 0.000000 0.000000
								}
							}
						}
					}
					JOINT LeftShoulder
					{
						OFFSET 8.476499 7.247704 -3.868750
						CHANNELS 3 Xrotation Yrotation Zrotation
						JOINT LeftShoulder_split
						{
							OFFSET 8.476499 7.247704 -3.868750
							CHANNELS 3 Xrotation Yrotation Zrotation
							JOINT LeftArm
							{
								OFFSET 9.308998 -2.777710 0.208600
								CHANNELS 3 Xrotation Yrotation Zrotation
								JOINT LeftForeArm
								{
									OFFSET 29.972298 0.000000 0.000000
									CHANNELS 3 Xrotation Yrotation Zrotation
									JOINT LeftHand
									{
										OFFSET 26.026505 0.000000 0.000000
										CHANNELS 3 Xrotation Yrotation Zrotation
										JOINT LeftHandThumb1
										{
											OFFSET 12.240501 -7.147949 9.207150
											CHANNELS 3 Xrotation Yrotation Zrotation
											JOINT LeftHandThumb2
											{
												OFFSET 4.138618 -2.389435 2.389433
												CHANNELS 3 Xrotation Yrotation Zrotation
												JOINT LeftHandThumb3
												{
													OFFSET 2.726913 -1.574387 1.574386
													CHANNELS 3 Xrotation Yrotation Zrotation
													JOINT LeftHandThumb4
													{
														OFFSET 3.941010 -2.275345 2.275342
														CHANNELS 3 Xrotation Yrotation Zrotation
														End Site
														{
															OFFSET 0.000000 0.000000 0.000000
														}
													}
												}
											}
										}
										JOINT LeftHandIndex1
										{
											OFFSET 24.424698 -1.985611 5.953459
											CHANNELS 3 Xrotation Yrotation Zrotation
											JOINT LeftHandIndex2
											{
												OFFSET 6.426697 0.000000 0.000000
												CHANNELS 3 Xrotation Yrotation Zrotation
												JOINT LeftHandIndex3
												{
													OFFSET 5.337898 0.000000 0.000000
													CHANNELS 3 Xrotation Yrotation Zrotation
													JOINT LeftHandIndex4
													{
														OFFSET 4.409401 0.000000 0.000000
														CHANNELS 3 Xrotation Yrotation Zrotation
														End Site
														{
															OFFSET 0.000000 0.000000 0.000000
														}
													}
												}
											}
										}
										JOINT LeftHandMiddle1
										{
											OFFSET 23.810104 0.000000 0.000000
											CHANNELS 3 Xrotation Yrotation Zrotation
											JOINT LeftHandMiddle2
											{
												OFFSET 7.176498 0.000000 0.000000
												CHANNELS 3 Xrotation Yrotation Zrotation
												JOINT LeftHandMiddle3
												{
													OFFSET 6.774902 0.000000 0.000000
													CHANNELS 3 Xrotation Yrotation Zrotation
													JOINT LeftHandMiddle4
													{
														OFFSET 5.403328 0.000000 0.000000
														CHANNELS 3 Xrotation Yrotation Zrotation
														End Site
														{
															OFFSET 0.000000 0.000000 0.000000
														}
													}
												}
											}
										}
										JOINT LeftHandRing1
										{
											OFFSET 22.908401 -0.839279 -6.020567
											CHANNELS 3 Xrotation Yrotation Zrotation
											JOINT LeftHandRing2
											{
												OFFSET 6.337502 0.000000 0.000000
												CHANNELS 3 Xrotation Yrotation Zrotation
												JOINT LeftHandRing3
												{
													OFFSET 5.779297 0.000000 0.000000
													CHANNELS 3 Xrotation Yrotation Zrotation
													JOINT LeftHandRing4
													{
														OFFSET 4.965698 0.000000 0.000000
														CHANNELS 3 Xrotation Yrotation Zrotation
														End Site
														{
															OFFSET 0.000000 0.000000 0.000000
														}
													}
												}
											}
										}
										JOINT LeftHandPinky1
										{
											OFFSET 20.037003 -1.530319 -10.950146
											CHANNELS 3 Xrotation Yrotation Zrotation
											JOINT LeftHandPinky2
											{
												OFFSET 5.254700 0.000000 0.000000
												CHANNELS 3 Xrotation Yrotation Zrotation
												JOINT LeftHandPinky3
												{
													OFFSET 4.810204 0.000000 0.000000
													CHANNELS 3 Xrotation Yrotation Zrotation
													JOINT LeftHandPinky4
													{
														OFFSET 3.647202 0.000000 0.000000
														CHANNELS 3 Xrotation Yrotation Zrotation
														End Site
														{
															OFFSET 0.000000 0.000000 0.000000
														}
													}
												}
											}
										}
									}
								}
							}
						}
					}
					JOINT RightShoulder
					{
						OFFSET -7.570500 7.247704 -3.868750
						CHANNELS 3 Xrotation Yrotation Zrotation
						JOINT RightShoulder_split
						{
							OFFSET -7.570500 7.247704 -3.868750
							CHANNELS 3 Xrotation Yrotation Zrotation
							JOINT RightArm
							{
								OFFSET -9.308998 -2.777710 0.208500
								CHANNELS 3 Xrotation Yrotation Zrotation
								JOINT RightForeArm
								{
									OFFSET -29.972300 0.000000 0.000000
									CHANNELS 3 Xrotation Yrotation Zrotation
									JOINT RightHand
									{
										OFFSET -26.026505 0.000000 0.000000
										CHANNELS 3 Xrotation Yrotation Zrotation
										JOINT RightHandThumb1
										{
											OFFSET -12.240601 -7.148026 9.207092
											CHANNELS 3 Xrotation Yrotation Zrotation
											JOINT RightHandThumb2
											{
												OFFSET -4.138618 -2.389435 2.389433
												CHANNELS 3 Xrotation Yrotation Zrotation
												JOINT RightHandThumb3
												{
													OFFSET -2.726974 -1.574417 1.574421
													CHANNELS 3 Xrotation Yrotation Zrotation
													JOINT RightHandThumb4
													{
														OFFSET -3.941010 -2.275345 2.275343
														CHANNELS 3 Xrotation Yrotation Zrotation
														End Site
														{
															OFFSET 0.000000 0.000000 0.000000
														}
													}
												}
											}
										}
										JOINT RightHandIndex1
										{
											OFFSET -24.424698 -1.985657 5.953444
											CHANNELS 3 Xrotation Yrotation Zrotation
											JOINT RightHandIndex2
											{
												OFFSET -6.426697 0.000000 0.000000
												CHANNELS 3 Xrotation Yrotation Zrotation
												JOINT RightHandIndex3
												{
													OFFSET -5.337898 0.000000 0.000000
													CHANNELS 3 Xrotation Yrotation Zrotation
													JOINT RightHandIndex4
													{
														OFFSET -4.409401 0.000000 0.000000
														CHANNELS 3 Xrotation Yrotation Zrotation
														End Site
														{
															OFFSET 0.000000 0.000000 0.000000
														}
													}
												}
											}
										}
										JOINT RightHandMiddle1
										{
											OFFSET -23.810097 0.000000 0.000000
											CHANNELS 3 Xrotation Yrotation Zrotation
											JOINT RightHandMiddle2
											{
												OFFSET -7.176498 0.000000 0.000000
												CHANNELS 3 Xrotation Yrotation Zrotation
												JOINT RightHandMiddle3
												{
													OFFSET -6.774902 0.000000 0.000000
													CHANNELS 3 Xrotation Yrotation Zrotation
													JOINT RightHandMiddle4
													{
														OFFSET -5.403328 0.000000 0.000000
														CHANNELS 3 Xrotation Yrotation Zrotation
														End Site
														{
															OFFSET 0.000000 0.000000 0.000000
														}
													}
												}
											}
										}
										JOINT RightHandRing1
										{
											OFFSET -22.908302 -0.839325 -6.020576
											CHANNELS 3 Xrotation Yrotation Zrotation
											JOINT RightHandRing2
											{
												OFFSET -6.337502 0.000000 0.000000
												CHANNELS 3 Xrotation Yrotation Zrotation
												JOINT RightHandRing3
												{
													OFFSET -5.779297 0.000000 0.000000
													CHANNELS 3 Xrotation Yrotation Zrotation
													JOINT RightHandRing4
													{
														OFFSET -4.965698 0.000000 0.000000
														CHANNELS 3 Xrotation Yrotation Zrotation
														End Site
														{
															OFFSET 0.000000 0.000000 0.000000
														}
													}
												}
											}
										}
										JOINT RightHandPinky1
										{
											OFFSET -20.037003 -1.530334 -10.950259
											CHANNELS 3 Xrotation Yrotation Zrotation
											JOINT RightHandPinky2
											{
												OFFSET -5.254700 0.000000 0.000000
												CHANNELS 3 Xrotation Yrotation Zrotation
												JOINT RightHandPinky3
												{
													OFFSET -4.810204 0.000000 0.000000
													CHANNELS 3 Xrotation Yrotation Zrotation
													JOINT RightHandPinky4
													{
														OFFSET -3.647202 0.000000 0.000000
														CHANNELS 3 Xrotation Yrotation Zrotation
														End Site
														{
															OFFSET 0.000000 0.000000 0.000000
														}
													}
												}
											}
										}
									}
								}
							}
						}
					}
				}
			}
		}
	}
	JOINT LeftUpLeg
	{
		OFFSET 15.427100 -6.655098 0.678600
		CHANNELS 3 Xrotation Yrotation Zrotation
		JOINT LeftLeg
		{
			OFFSET 4.081073 -39.591068 13.024000
			CHANNELS 3 Xrotation Yrotation Zrotation
			JOINT LeftFoot
			{
				OFFSET -4.081074 -37.707932 -15.979700
				CHANNELS 3 Xrotation Yrotation Zrotation
				JOINT LeftToeBase
				{
					OFFSET 5.346399 -15.068900 20.645000
					CHANNELS 3 Xrotation Yrotation Zrotation
					JOINT LeftToe_End
					{
						OFFSET 2.754700 0.931300 11.300900
						CHANNELS 3 Xrotation Yrotation Zrotation
						End Site
						{
							OFFSET 0.000000 0.000000 0.000000
						}
					}
				}
			}
		}
	}
	JOINT RightUpLeg
	{
		OFFSET -15.569500 -6.655098 0.678600
		CHANNELS 3 Xrotation Yrotation Zrotation
		JOINT RightLeg
		{
			OFFSET -4.081825 -39.591045 13.023800
			CHANNELS 3 Xrotation Yrotation Zrotation
			JOINT RightFoot
			{
				OFFSET 4.081824 -37.707954 -15.979600
				CHANNELS 3 Xrotation Yrotation Zrotation
				JOINT RightToeBase
				{
					OFFSET -5.346400 -15.068900 20.645000
					CHANNELS 3 Xrotation Yrotation Zrotation
					JOINT RightToe_End
					{
						OFFSET -2.754700 0.931300 11.300900
						CHANNELS 3 Xrotation Yrotation Zrotation
						End Site
						{
							OFFSET 0.000000 0.000000 0.000000
						}
					}
				}
			}
		}
	}
}
MOTION
Frames: 4
Frame Time: 0.016667
2.160703 72.838898 -1.758279 -5.290528 -45.295147 -0.373946 9.420051 7.435562 -1.366651 2.187715 0.989897 -0.915631 0.000000 0.000000 0.000000 2.202832 0.982774 -0.894152 0.084651 13.220550 4.538681 8.920922 20.138138 -4.130235 0.000000 0.000000 0.000000 1.117178 3.546349 -8.633308 0.000000 0.000000 0.000000 -53.487013 4.935512 -51.502994 0.000042 -106.358080 0.000064 1.988608 -7.706146 -15.869262 -6.141226 -11.690798 -6.761674 9.914108 42.595515 3.409885 -0.422796 8.108080 27.509074 0.000000 -0.000000 0.000000 0.255312 3.378222 -45.814341 5.654095 5.847753 -88.067448 2.162146 4.544813 -50.866362 -0.000000 0.000000 -0.000004 -0.461473 3.841596 -39.722679 6.450751 5.820345 -95.892871 2.182885 4.561567 -51.127719 0.000000 0.000000 0.000003 0.469729 4.966826 -39.799434 8.181032 5.368617 -113.503011 3.200488 5.218118 -63.022989 0.000000 -0.000002 0.000001 -3.762422 9.063685 -45.253821 5.342532 5.829008 -85.005304 8.716839 5.103326 -119.369167 0.000003 0.000001 0.000001 3.036126 13.027192 -5.371408 0.000000 0.000000 0.000000 -48.713725 27.172835 83.457064 0.000113 105.988294 -0.000144 -8.345384 17.548083 8.775686 -7.341102 13.749657 7.412321 9.855804 -44.489113 -3.903243 -0.115786 -14.513081 -28.973871 -0.000002 0.000001 -0.000001 -0.124375 -2.384789 45.108885 4.500601 -4.654540 88.071171 1.723228 -3.618376 50.920105 -0.000000 -0.000003 0.000001 -0.761617 -2.932904 39.031078 5.133884 -4.632757 95.881663 1.739743 -3.631706 51.181374 0.000000 0.000001 0.000003 0.154766 -4.068809 39.122675 6.509726 -4.273594 113.462877 2.549582 -4.153920 63.067330 0.000001 -0.000001 -0.000000 -4.198880 -8.025514 44.637783 4.252920 -4.639637 85.014811 6.935963 -4.062625 119.322312 -0.000001 0.000001 -0.000000 -34.255755 5.085939 20.300623 56.771771 -7.633874 3.672757 -20.132773 -7.078584 -17.222834 -1.594042 0.000002 0.000001 -0.000000 0.000002 0.000000 -19.408319 -8.979614 -34.668217 57.007709 -2.876757 -4.765829 -26.306241 -10.338037 26.247772 -0.012999 0.000002 -0.000007 -0.000000 -0.000001 0.000000 
2.134886 72.624771 -1.950011 -5.395665 -45.565135 -0.448016 9.433127 7.531729 -1.224013 2.190247 1.012036 -0.889779 0.000000 0.000000 0.000000 2.204670 1.005826 -0.868760 0.085767 13.245578 4.386414 8.800627 20.230035 -4.209236 -0.000000 0.000000 0.000000 1.115723 3.626842 -8.693361 0.000000 0.000000 0.000000 -53.153649 4.985186 -51.684332 0.000003 -106.535248 0.000002 2.135048 -7.826400 -15.735516 -6.141224 -11.690795 -6.761674 9.914106 42.595512 3.409887 -0.422801 8.108074 27.509077 -0.000002 0.000001 -0.000002 0.255313 3.378224 -45.814341 5.654092 5.847751 -88.067455 2.162141 4.544813 -50.866362 -0.000000 0.000000 -0.000001 -0.461472 3.841600 -39.722683 6.450755 5.820347 -95.892864 2.182887 4.561567 -51.127719 0.000001 -0.000001 0.000000 0.469730 4.966826 -39.799434 8.181032 5.368613 -113.503011 3.200489 5.218119 -63.022982 -0.000002 0.000001 0.000003 -3.762423 9.063692 -45.253818 5.342534 5.829009 -85.005304 8.716841 5.103328 -119.369167 0.000002 0.000000 -0.000002 3.033766 13.290781 -5.488889 0.000000 0.000000 0.000000 -48.445579 26.967621 82.836452 0.000128 106.217262 -0.000136 -8.837567 17.355383 8.303446 -7.341103 13.749658 7.412321 9.855810 -44.489113 -3.903249 -0.115782 -14.513080 -28.973871 0.000000 -0.000002 -0.000001 -0.124373 -2.384787 45.108885 4.500599 -4.654541 88.071171 1.723230 -3.618377 50.920102 0.000001 -0.000000 0.000001 -0.761617 -2.932906 39.031075 5.133885 -4.632759 95.881663 1.739748 -3.631707 51.181374 -0.000000 0.000000 0.000005 0.154766 -4.068809 39.122671 6.509727 -4.273594 113.462870 2.549583 -4.153920 63.067337 0.000001 -0.000001 -0.000000 -4.198879 -8.025516 44.637786 4.252917 -4.639637 85.014811 6.935961 -4.062625 119.322312 -0.000002 0.000000 -0.000000 -34.713139 4.735942 20.480507 57.467525 -7.584928 3.747552 -19.434625 -6.917420 -17.418944 -2.134537 0.000002 -0.000002 -0.000000 -0.000002 -0.000000 -19.852221 -8.905593 -34.629018 57.421646 -2.530877 -4.906010 -26.486651 -10.295199 26.263594 0.001563 0.000036 0.004083 -0.000000 -0.000000 -0.000000 
2.141287 72.393349 -2.103428 -5.527664 -45.858717 -0.556723 9.465730 7.600637 -1.066608 2.197572 1.027117 -0.862105 0.000000 0.000000 0.000000 2.211432 1.021836 -0.841508 0.080983 13.269760 4.242637 8.681404 20.313037 -4.292195 -0.000000 -0.000000 -0.000001 1.116596 3.696294 -8.750941 0.000000 0.000000 0.000000 -52.843022 5.031850 -51.853444 -0.000004 -106.672385 0.000006 2.300295 -7.951173 -15.637938 -6.141225 -11.690796 -6.761677 9.914108 42.595515 3.409885 -0.422797 8.108080 27.509084 -0.000002 0.000003 -0.000001 0.255312 3.378223 -45.814337 5.654094 5.847753 -88.067455 2.162143 4.544813 -50.866359 0.000001 -0.000001 -0.000002 -0.461475 3.841597 -39.722679 6.450751 5.820347 -95.892871 2.182883 4.561567 -51.127719 -0.000002 0.000000 0.000005 0.469728 4.966825 -39.799430 8.181034 5.368614 -113.503011 3.200490 5.218120 -63.022989 0.000000 0.000002 0.000000 -3.762424 9.063687 -45.253814 5.342531 5.829011 -85.005304 8.716841 5.103328 -119.369167 0.000003 -0.000000 -0.000002 3.025577 13.532518 -5.623950 0.000000 0.000000 0.000000 -48.207759 26.760165 82.252990 -0.000023 106.474248 0.000027 -9.184481 17.196924 7.719694 -7.341102 13.749660 7.412323 9.855806 -44.489113 -3.903246 -0.115783 -14.513083 -28.973871 0.000000 0.000000 -0.000001 -0.124375 -2.384785 45.108881 4.500596 -4.654542 88.071171 1.723229 -3.618377 50.920105 0.000001 0.000003 0.000000 -0.761617 -2.932903 39.031082 5.133888 -4.632759 95.881663 1.739745 -3.631708 51.181374 -0.000000 0.000001 -0.000001 0.154766 -4.068809 39.122671 6.509727 -4.273596 113.462877 2.549582 -4.153920 63.067337 -0.000001 0.000001 0.000002 -4.198880 -8.025512 44.637783 4.252918 -4.639637 85.014811 6.935961 -4.062624 119.322312 -0.000002 0.000000 -0.000000 -35.146296 4.357609 20.680418 58.243899 -7.463159 3.781046 -18.772167 -6.842929 -17.613115 -2.695573 -0.000024 0.000002 -0.000000 -0.000000 -0.000000 -20.357901 -8.853720 -34.596281 57.883203 -2.145693 -5.091383 -26.666404 -10.236696 26.169609 -0.027977 0.000010 -0.000002 -0.000000 0.000000 0.000000 
2.175724 72.145798 -2.211546 -5.688367 -46.167895 -0.698996 9.513234 7.642381 -0.901153 2.208613 1.035263 -0.834416 0.000000 0.000000 0.000000 2.222026 1.030869 -0.814187 0.077829 13.290474 4.114898 8.569948 20.386129 -4.382673 0.000000 0.000000 -0.000000 1.119850 3.753401 -8.805218 0.000000 0.000000 0.000000 -52.554802 5.073432 -52.013117 -0.000006 -106.767564 0.000001 2.477034 -8.092272 -15.589512 -6.141225 -11.690796 -6.761673 9.914106 42.595512 3.409883 -0.422792 8.108075 27.509082 0.000000 -0.000002 0.000000 0.255313 3.378225 -45.814341 5.654093 5.847751 -88.067448 2.162144 4.544813 -50.866365 -0.000000 0.000000 -0.000000 -0.461473 3.841599 -39.722679 6.450750 5.820348 -95.892871 2.182883 4.561564 -51.127709 -0.000001 0.000000 0.000000 0.469728 4.966829 -39.799430 8.181033 5.368614 -113.503011 3.200488 5.218119 -63.022989 0.000001 0.000001 -0.000001 -3.762422 9.063687 -45.253821 5.342534 5.829010 -85.005304 8.716839 5.103328 -119.369167 0.000001 0.000000 -0.000000 3.012411 13.754810 -5.753859 0.000000 0.000000 0.000000 -47.992328 26.566313 81.688892 -0.000020 106.756253 0.000021 -9.402040 17.062728 7.024381 -7.341103 13.749658 7.412322 9.855800 -44.489120 -3.903240 -0.115783 -14.513081 -28.973871 -0.000001 0.000002 -0.000002 -0.124375 -2.384788 45.108881 4.500597 -4.654541 88.071171 1.723227 -3.618376 50.920105 -0.000001 0.000001 -0.000000 -0.761617 -2.932905 39.031075 5.133884 -4.632759 95.881663 1.739744 -3.631704 51.181370 -0.000002 -0.000001 -0.000001 0.154766 -4.068809 39.122668 6.509726 -4.273593 113.462870 2.549582 -4.153918 63.067337 -0.000001 -0.000000 0.000000 -4.198881 -8.025513 44.637783 4.252917 -4.639635 85.014811 6.935961 -4.062624 119.322298 0.000000 -0.000000 -0.000000 -35.580508 3.967117 20.860303 59.126441 -7.336033 3.807152 -18.105191 -6.782461 -17.765387 -3.592428 -0.000009 0.000490 0.000000 -0.000000 -0.000000 -20.887832 -8.815176 -34.578324 58.359821 -1.718884 -5.311144 -26.836127 -10.171133 26.025543 -0.090343 -0.000001 0.000006 -0.000000 -0.000000 0.000000 
